<svg xmlns="http://www.w3.org/2000/svg" viewBox="0 0 260.17 58.58"><defs><style>.a{fill:#fff;}</style></defs><title>logo</title><path class="a" d="M71,1.39a9.87,9.87,0,0,0-.06-1.1A8,8,0,0,0,72,.33h5.73a8.8,8.8,0,0,0,1.08,0,8.38,8.38,0,0,0-.06,1.09V7.21a6.7,6.7,0,0,0,.06,1.17h-1V7.86h-5.8v.52h-1A7.86,7.86,0,0,0,71,7.2Zm1,5.59h5.8V1.21h-5.8Zm1.36-4.34a4.51,4.51,0,0,0-.82,0V1.77a5.46,5.46,0,0,0,.82.05h3.09a5.67,5.67,0,0,0,.84-.05v.92a4.69,4.69,0,0,0-.84,0H75.22v.94h.94a5,5,0,0,0,.78,0v.9a3.39,3.39,0,0,0-.58-.05,4,4,0,0,1,.57.88l-.49.27a4.33,4.33,0,0,0,.89,0v.94a7,7,0,0,0-.85,0H73.19a6.3,6.3,0,0,0-.86,0V5.49a4.16,4.16,0,0,0,.86,0h1.09V4.39H73.5a4,4,0,0,0-.78.05v-.9a5,5,0,0,0,.78,0h.78V2.64Zm1.93,2.9h1a4.07,4.07,0,0,0-.56-.9l.47-.25h-.89ZM85.1,7A18.74,18.74,0,0,0,86.46,2.6l1.17.34a4.21,4.21,0,0,0-.3.87A28.59,28.59,0,0,1,86.16,7H87.8A9.42,9.42,0,0,0,89,6.9V8a7.35,7.35,0,0,0-1.15-.07H81.88A7.6,7.6,0,0,0,80.7,8V6.9a9.56,9.56,0,0,0,1.18,0ZM84.24.76a4.17,4.17,0,0,0-.06-.71h1.14a3.14,3.14,0,0,0-.07.7v.62h2.19a7.22,7.22,0,0,0,1.17-.07V2.4a9.3,9.3,0,0,0-1.17-.06H82.17A9,9,0,0,0,81,2.4V1.3a6.87,6.87,0,0,0,1.15.07h2.07ZM83.06,2.69a26,26,0,0,1,1,3.53l-1,.36a17.53,17.53,0,0,0-1-3.55Zm14.62.48a8.85,8.85,0,0,1,1.13.07V2.09a8.64,8.64,0,0,1-1.15.06h-2.4c0-.33,0-.55,0-.92A7.36,7.36,0,0,1,95.34.17h-1.2a5.75,5.75,0,0,1,.06.91c0,.47,0,.62,0,1.07H92a7.88,7.88,0,0,1-1.14-.06V3.24a7.32,7.32,0,0,1,1.13-.07h2.15A4.65,4.65,0,0,1,92,6.6a6.47,6.47,0,0,1-1.47.77,3.35,3.35,0,0,1,.64,1A7.06,7.06,0,0,0,93.38,6.9a5.51,5.51,0,0,0,1.47-2.44,6.9,6.9,0,0,0,1.38,2.2,7.63,7.63,0,0,0,2.24,1.67,3.76,3.76,0,0,1,.66-1,6.27,6.27,0,0,1-2.5-1.72,6.39,6.39,0,0,1-1.31-2.39Zm4.18,2.72a7.92,7.92,0,0,0-1.1.06v-1a8.49,8.49,0,0,0,1.09.06h2.47V4.94a3.94,3.94,0,0,0,0-.5h.39a5,5,0,0,0,1.07-.73h-2.5a8.54,8.54,0,0,0-.91,0V2.83a6.12,6.12,0,0,0,.92,0h3a3.74,3.74,0,0,0,.69,0l.5.56a3.58,3.58,0,0,0-.33.27A13,13,0,0,1,105.32,5h2.37a8.35,8.35,0,0,0,1.12-.06V6a8.31,8.31,0,0,0-1.13-.06h-2.36V7.48a.94.94,0,0,1-.11.57c-.16.23-.47.3-1.28.3l-.89,0a3.72,3.72,0,0,0-.3-1,7.31,7.31,0,0,0,1.12.09c.4,0,.46,0,.46-.21V5.89Zm.47-4.48a5.06,5.06,0,0,0-.68-1l.92-.27a6.82,6.82,0,0,1,.82,1.3h1A5.82,5.82,0,0,0,103.8.26l.94-.26a6.63,6.63,0,0,1,.63,1.41h.77a6.7,6.7,0,0,0,.75-1.36l1,.27a9.43,9.43,0,0,1-.68,1.09h.41a9.91,9.91,0,0,0,1.11,0,5.2,5.2,0,0,0,0,.75V3a5.09,5.09,0,0,0,0,.69h-1V2.25h-5.92V3.66h-1a3.65,3.65,0,0,0,.05-.7V2.12a5.38,5.38,0,0,0,0-.75,7.91,7.91,0,0,0,1.07,0Zm8.8.87a10.49,10.49,0,0,1,1.63,1.11l-.58.82A9.42,9.42,0,0,0,110.57,3Zm1.62,3.1c-.32.84-.52,1.32-.88,2.07-.16.34-.16.34-.28.62l-.11.22-.87-.76a11,11,0,0,0,1.33-2.72ZM111.58.06a9.21,9.21,0,0,1,1.56,1.17l-.62.78A9.19,9.19,0,0,0,111,.76Zm1.15,7H113l.67,0a14,14,0,0,0,1.13-2.5h-1a9.4,9.4,0,0,0-1,0v-1a8.31,8.31,0,0,0,1,.05h1.42V2.26h-1.09a9.1,9.1,0,0,0-1,.05v-1a5.92,5.92,0,0,0,1,.06h1.08V1a4.56,4.56,0,0,0,0-.95h1.1a4.73,4.73,0,0,0-.06,1v.4h1.46a5.89,5.89,0,0,0,.92-.06v1a5.6,5.6,0,0,0-.91-.05h-1.47V3.62H118a8.58,8.58,0,0,0,1-.05v1a8.66,8.66,0,0,0-1,0h-2.13l-.18.5a16.7,16.7,0,0,1-.8,1.76l-.08.17a21.59,21.59,0,0,0,2.41-.3,11.75,11.75,0,0,0-.89-1.29l.81-.42A21.26,21.26,0,0,1,119,7.75l-.9.54c-.2-.42-.27-.55-.41-.84a30.35,30.35,0,0,1-3.29.48,11.58,11.58,0,0,0-1.47.18ZM124.15.13a7.64,7.64,0,0,1,0,.77,7,7,0,0,1-1.66,5,6.27,6.27,0,0,1-2,1.52,2.54,2.54,0,0,1,.7.93,7.69,7.69,0,0,0,1.41-1,6.42,6.42,0,0,0,1.4-1.75,6.54,6.54,0,0,0,.71-1.83A7.35,7.35,0,0,0,126,6.22a8.93,8.93,0,0,0,2.31,2.14,3.55,3.55,0,0,1,.71-1,6.33,6.33,0,0,1-1.42-1,6.11,6.11,0,0,1-1.42-1.73,6.44,6.44,0,0,1-.89-3.57,5.73,5.73,0,0,1,.06-.94ZM149.4,16.7h10.35V15.38H135.62V16.7H146V39.33H133.62v1.33h28.12V39.33H149.4Zm77.52,2.22H214.64V12.87h-3.33v6.05H199v1.32h12.25c-.41,8.14-5.43,16.31-12.25,19.09v1.33c5.91-1.36,11.33-6.66,14-13.39,2.62,6.73,8.05,12,13.94,13.39V39.33c-6.83-2.78-11.84-10.95-12.25-19.09h12.25Zm-142,19.75V34h9.19V32.68H84.92V29.42H81.75v3.26H72.56V34h9.19v4.68H69.32V40h28V38.67ZM92.36,30H95.8A30.65,30.65,0,0,0,89,22.82H87.24a28,28,0,0,1,3.25,4.08H75.32a52.64,52.64,0,0,0,8.05-5.83h8.37V19.73H74.94v1.34h4.61a37.76,37.76,0,0,1-7.74,5.83v1.34H91.36a16.76,16.76,0,0,1,1,1.76m5-13.67a1,1,0,0,0-1-.95H84.92v-3H81.76v3H70.28a.94.94,0,0,0-1,.95V22.5h3.24V16.71H94.12V22.5h3.23ZM246.6,30.81V29.74c.25-.18,2.45-1.54,3.67-2.31s3-2.05,3.63-2.55V23.54H236.23v1.34H249a25.19,25.19,0,0,1-2.87,3h-2.84v2.92H231.36v1.33h11.95v5.79c0,1.28-.18,1.4-1.83,1.4H238.6v1.33h4.89c2.81,0,3.11-1,3.11-2.75V32.14h12.16V30.81Zm11.21-11.89h-6.29l4.68-5.51h-3.09a.94.94,0,0,0-.76.36l-4.17,5.14H232.32a1,1,0,0,0-1,1v5h3.23V20.24h20.94v4.63h3.23v-5a1,1,0,0,0-.95-1m-20.48-5.14a.94.94,0,0,0-.75-.36h-3.2l3.67,4.16h3.45Zm6.26,0a.91.91,0,0,0-.74-.36h-3.21l3.68,4.16h3.45ZM108.71,15.37h-6.64v1.34h6.64v1.55h3.14V16.71h8.62v1.55h3.15V16.71h6.63V15.37h-6.63V12.79h-3.15v2.59h-8.62V12.79h-3.14Zm19.76,3.94h-10a1,1,0,0,0-1,1v4.62a1,1,0,0,0,1,1h7.95v12.7c0,.78-.12,1-.86,1h-.78V40.9h2.05c2.56,0,2.56-1,2.56-2.67v-18a1,1,0,0,0-1-1m-2,5.28h-6V23.16h6Zm0-2.63h-6v-1.4h6Zm-12.65-2.65h-10a1,1,0,0,0-1,1V40.9h3v-15h8a1,1,0,0,0,1-1V20.27a1,1,0,0,0-1-1m-2,5.28h-6V23.16h6Zm0-2.63h-6v-1.4h6Zm12.44,6.8V27.49h-6.74V26.2h-2.78v1.29H108v1.27h6.73V30h-5.4a.67.67,0,0,0-.67.67V35a.67.67,0,0,0,.67.66h3.69a15.94,15.94,0,0,1-4.94,3.65v1a20.74,20.74,0,0,0,6.65-3.52V40.9h2.78V36.76a20.5,20.5,0,0,0,6.64,3.52v-1a15.94,15.94,0,0,1-4.94-3.65H123a.67.67,0,0,0,.67-.66V30.65A.67.67,0,0,0,123,30h-5.4V28.76Zm-12.92,2.43h3.4v1.07h-3.4Zm0,2.16h3.4V34.5h-3.4ZM121,34.5h-3.4V33.35H121Zm0-2.25h-3.4V31.19H121Zm73.41-1H181.6V28.81H193V27.49H181.6V25H193V23.72h-5.89V20.25h7.3V18.91h-9.94v-5.5h-2.83v5.5h-3.18v-5.5h-2.84v5.5h-9.94v1.34H173v3.47h-5.9V25h11.37v2.46H167.05v1.32h11.37v2.44H165.64v1.31h10c-.72,1.39-3.77,4.6-10,6.78v1.32c4.76-.95,10-3.74,12.77-6.91v6.92h3.17V33.75c2.8,3.18,8,6,12.76,6.91V39.34c-6.23-2.18-9.26-5.39-10-6.78h10Zm-18.77-11h8.84v3.47h-8.84Zm10.28-2.68h3.36L192.36,14h-3.1a1,1,0,0,0-.75.37Zm-14.39-3.23a1,1,0,0,0-.75-.37h-3.09l3.12,3.59h3.36ZM1.21,58.58C18.93,35.51,34.29,23.92,45.63,18.77,41.94,31.19,24.08,51.15,17,41.26,22.11,58.3,51,37.21,56,9,29.78,12.49,8.87,39.12,1.21,58.58M15.29,33.8c.87-7.74,6.37-18,11-24.76C3.56,13.94-8.34,32.89,6.7,42.78c-7.23-8.66-.24-19,9-24a29.89,29.89,0,0,0-.44,15M69.21,50.72h1l2,4.51,2-4.51h1v6.93H74.08V53.33h0l-1.45,3.33h-.87l-1.46-3.33h0v4.32H69.21Zm8.23,0h1v4.47a1.44,1.44,0,0,0,.41,1.08,1.35,1.35,0,0,0,1,.39,1.41,1.41,0,0,0,1-.39,1.47,1.47,0,0,0,.4-1.08V50.72h1.05V55.3A2.35,2.35,0,0,1,81.66,57a2.62,2.62,0,0,1-3.5,0,2.29,2.29,0,0,1-.72-1.74Zm7.24,0h2.7a2.18,2.18,0,0,1,1.42.45,1.86,1.86,0,0,1,.69,1.48,1.94,1.94,0,0,1-1.35,1.92l1.61,3.08H88.5l-1.43-3H85.73v3h-1Zm1,3h1.59a1.13,1.13,0,0,0,.88-.34,1.07,1.07,0,0,0,.29-.76.89.89,0,0,0-.35-.78,1.14,1.14,0,0,0-.77-.22H85.73Zm5.62.43a12.93,12.93,0,0,1,.07-1.61,2,2,0,0,1,.24-.67,2.32,2.32,0,0,1,.81-.85,2.43,2.43,0,0,1,1.36-.39,2.49,2.49,0,0,1,1.38.39,2.34,2.34,0,0,1,.79.85,1.51,1.51,0,0,1,.24.67,13.63,13.63,0,0,1,.06,1.61,13.75,13.75,0,0,1-.06,1.61,1.51,1.51,0,0,1-.24.67,2.34,2.34,0,0,1-.79.85,2.58,2.58,0,0,1-1.38.4,2.51,2.51,0,0,1-1.36-.4,2.32,2.32,0,0,1-.81-.85c0-.1-.1-.2-.14-.3a2.14,2.14,0,0,1-.1-.37A13,13,0,0,1,91.35,54.18Zm1.06,0a8.48,8.48,0,0,0,.07,1.39,1.17,1.17,0,0,0,.28.58,1.25,1.25,0,0,0,.43.35,1.29,1.29,0,0,0,.64.16,1.33,1.33,0,0,0,.65-.16,1.13,1.13,0,0,0,.42-.35,1.17,1.17,0,0,0,.28-.58,13.84,13.84,0,0,0,0-2.78,1.21,1.21,0,0,0-.28-.58,1.13,1.13,0,0,0-.42-.35,1.6,1.6,0,0,0-.65-.15,1.55,1.55,0,0,0-.64.15,1.25,1.25,0,0,0-.43.35,1.21,1.21,0,0,0-.28.58A8.56,8.56,0,0,0,92.41,54.18Zm6.09-3.46h2.71a2.13,2.13,0,0,1,1.41.45,1.86,1.86,0,0,1,.69,1.48A1.93,1.93,0,0,1,102,54.57l1.61,3.08h-1.25l-1.43-3H99.56v3H98.5Zm1.06,3h1.58a1.14,1.14,0,0,0,.89-.34,1.07,1.07,0,0,0,.29-.76.91.91,0,0,0-.35-.78,1.16,1.16,0,0,0-.77-.22H99.56ZM109,56.1h-2.63l-.53,1.55h-1.12l2.53-6.93h.88l2.52,6.93h-1.11Zm-.3-.93-1-3h0l-1,3Zm3.66-4.45h1l3.14,4.92h0V50.72h1v6.93h-1l-3.14-4.93h0v4.93h-1Zm11,0h1v6.93h-1Zm3.48,0h1l3.14,4.92h0V50.72H132v6.93h-1l-3.13-4.93h0v4.93h-1Zm9.69,5.94c.9,0,1.36-.34,1.37-1s-.29-.83-.9-.93l-.92-.13a2.28,2.28,0,0,1-1.36-.66,1.84,1.84,0,0,1-.48-1.29,1.9,1.9,0,0,1,.6-1.46,2.38,2.38,0,0,1,1.66-.56,3.87,3.87,0,0,1,2.25.72l-.58.86a3.17,3.17,0,0,0-1.72-.53,1.34,1.34,0,0,0-.81.24.93.93,0,0,0-.35.75.78.78,0,0,0,.24.55,1.38,1.38,0,0,0,.74.34l.78.11a2.2,2.2,0,0,1,1.45.7,2,2,0,0,1,.46,1.29c0,1.33-.85,2-2.44,2a4,4,0,0,1-2.65-1l.69-.79A3.09,3.09,0,0,0,136.45,56.66Zm5.68-5h-1.89v-.93h4.85v.93h-1.9v6h-1.06Zm4.67-.93h1v6.93h-1Zm4.66.93h-1.9v-.93h4.85v.93h-1.89v6h-1.06Zm4.54-.93h1.05v4.47a1.48,1.48,0,0,0,.41,1.08,1.37,1.37,0,0,0,1,.39,1.4,1.4,0,0,0,1-.39,1.47,1.47,0,0,0,.4-1.08V50.72h1.05V55.3a2.32,2.32,0,0,1-.71,1.74,2.62,2.62,0,0,1-3.5,0A2.29,2.29,0,0,1,156,55.3Zm8.41.93h-1.89v-.93h4.85v.93h-1.9v6h-1.06Zm4.67-.93h4.43v1h-3.38v2H173v.93h-2.88v2h3.38v1h-4.43Zm9.46,3.46a10.69,10.69,0,0,1,.08-1.61,1.81,1.81,0,0,1,.23-.67A2.47,2.47,0,0,1,181,50.66a2.49,2.49,0,0,1,1.38.39,2.34,2.34,0,0,1,.79.85,1.51,1.51,0,0,1,.24.67,13.63,13.63,0,0,1,.06,1.61,13.75,13.75,0,0,1-.06,1.61,1.51,1.51,0,0,1-.24.67,2.34,2.34,0,0,1-.79.85,2.58,2.58,0,0,1-1.38.4,2.51,2.51,0,0,1-1.36-.4,2.41,2.41,0,0,1-.81-.85c0-.1-.1-.2-.14-.3a1.54,1.54,0,0,1-.09-.37A10.79,10.79,0,0,1,178.54,54.18Zm1.06,0a7.19,7.19,0,0,0,.08,1.39,1.08,1.08,0,0,0,.27.58,1.25,1.25,0,0,0,.43.35,1.29,1.29,0,0,0,.64.16,1.33,1.33,0,0,0,.65-.16,1.13,1.13,0,0,0,.42-.35,1.17,1.17,0,0,0,.28-.58,13.84,13.84,0,0,0,0-2.78,1.21,1.21,0,0,0-.28-.58,1.13,1.13,0,0,0-.42-.35,1.6,1.6,0,0,0-.65-.15,1.55,1.55,0,0,0-.64.15,1.25,1.25,0,0,0-.43.35,1.12,1.12,0,0,0-.27.58A7.25,7.25,0,0,0,179.6,54.18Zm6.09-3.46h4.43v1h-3.37v2h2.88v.94h-2.88v3h-1.06Zm10.69.93h-1.89v-.93h4.85v.93h-1.9v6h-1.06Zm4.67-.93h4.43v1H202.1v2H205v.93H202.1v2h3.38v1h-4.43Zm11.07,5a2.67,2.67,0,0,1-.87,1.48,2.45,2.45,0,0,1-1.57.52,2.51,2.51,0,0,1-1.36-.4,2.41,2.41,0,0,1-.81-.85c0-.1-.1-.2-.14-.3a1.54,1.54,0,0,1-.09-.37,10.79,10.79,0,0,1-.08-1.61,10.69,10.69,0,0,1,.08-1.61,1.81,1.81,0,0,1,.23-.67,2.47,2.47,0,0,1,2.17-1.24,2.37,2.37,0,0,1,1.64.59,2.65,2.65,0,0,1,.8,1.46H211a1.51,1.51,0,0,0-.46-.71,1.39,1.39,0,0,0-.86-.29,1.55,1.55,0,0,0-.64.15,1.25,1.25,0,0,0-.43.35,1.12,1.12,0,0,0-.27.58,8.22,8.22,0,0,0-.08,1.39,8.13,8.13,0,0,0,.08,1.39,1.08,1.08,0,0,0,.27.58,1.25,1.25,0,0,0,.43.35,1.29,1.29,0,0,0,.64.16,1.41,1.41,0,0,0,1.32-.95Zm5.51-1.09h-2.75v3h-1V50.72h1v3h2.75v-3h1.05v6.93h-1.05Zm3.49-3.9h1l3.13,4.92h0V50.72h1.05v6.93h-1l-3.13-4.93h0v4.93h-1Zm7.39,3.46a10.69,10.69,0,0,1,.08-1.61,1.81,1.81,0,0,1,.23-.67A2.47,2.47,0,0,1,231,50.66a2.49,2.49,0,0,1,1.38.39,2.26,2.26,0,0,1,.79.85,1.51,1.51,0,0,1,.24.67,13.63,13.63,0,0,1,.06,1.61,13.75,13.75,0,0,1-.06,1.61,1.51,1.51,0,0,1-.24.67,2.26,2.26,0,0,1-.79.85,2.58,2.58,0,0,1-1.38.4,2.51,2.51,0,0,1-1.36-.4,2.41,2.41,0,0,1-.81-.85c0-.1-.1-.2-.14-.3a1.54,1.54,0,0,1-.09-.37A10.79,10.79,0,0,1,228.51,54.18Zm1.06,0a8.13,8.13,0,0,0,.08,1.39,1.08,1.08,0,0,0,.27.58,1.25,1.25,0,0,0,.43.35,1.29,1.29,0,0,0,.64.16,1.33,1.33,0,0,0,.65-.16,1.13,1.13,0,0,0,.42-.35,1.17,1.17,0,0,0,.28-.58,13.84,13.84,0,0,0,0-2.78,1.21,1.21,0,0,0-.28-.58,1.13,1.13,0,0,0-.42-.35,1.6,1.6,0,0,0-.65-.15,1.55,1.55,0,0,0-.64.15,1.25,1.25,0,0,0-.43.35,1.12,1.12,0,0,0-.27.58A8.22,8.22,0,0,0,229.57,54.18Zm6.1-3.46h1.05v5.94h3.37v1h-4.42Zm6.15,3.46a11.16,11.16,0,0,1,.07-1.61,2,2,0,0,1,.23-.67,2.41,2.41,0,0,1,.81-.85,2.46,2.46,0,0,1,1.37-.39,2.49,2.49,0,0,1,1.38.39,2.31,2.31,0,0,1,.78.85,1.65,1.65,0,0,1,.25.67,13.63,13.63,0,0,1,.06,1.61,13.75,13.75,0,0,1-.06,1.61,1.65,1.65,0,0,1-.25.67,2.31,2.31,0,0,1-.78.85,2.58,2.58,0,0,1-1.38.4,2.55,2.55,0,0,1-1.37-.4,2.41,2.41,0,0,1-.81-.85l-.14-.3c0-.1-.06-.22-.09-.37A11.26,11.26,0,0,1,241.82,54.18Zm1.05,0a8.13,8.13,0,0,0,.08,1.39,1.08,1.08,0,0,0,.27.58,1.44,1.44,0,0,0,1.08.51,1.36,1.36,0,0,0,.65-.16,1.31,1.31,0,0,0,.42-.35,1.26,1.26,0,0,0,.28-.58,9.84,9.84,0,0,0,.07-1.39,9.94,9.94,0,0,0-.07-1.39,1.41,1.41,0,0,0-.7-.93,1.64,1.64,0,0,0-.65-.15,1.55,1.55,0,0,0-.64.15,1.29,1.29,0,0,0-.44.35,1.12,1.12,0,0,0-.27.58A8.22,8.22,0,0,0,242.87,54.18Zm8.35-.35h2.46v1.41A2.46,2.46,0,0,1,253,57a2.51,2.51,0,0,1-1.76.72,2.55,2.55,0,0,1-1.37-.4,2.29,2.29,0,0,1-.8-.85c0-.1-.1-.2-.14-.3a2.14,2.14,0,0,1-.1-.37,18.55,18.55,0,0,1,0-3.22,1.81,1.81,0,0,1,.24-.67,2.29,2.29,0,0,1,.8-.85,2.46,2.46,0,0,1,1.37-.39,2.39,2.39,0,0,1,1.64.59,2.63,2.63,0,0,1,.79,1.46h-1.11a1.51,1.51,0,0,0-.46-.71,1.39,1.39,0,0,0-.86-.29,1.55,1.55,0,0,0-.64.15,1.39,1.39,0,0,0-.44.35,1.3,1.3,0,0,0-.27.58,13.84,13.84,0,0,0,0,2.78,1.25,1.25,0,0,0,.27.58,1.39,1.39,0,0,0,.44.35,1.29,1.29,0,0,0,.64.16,1.32,1.32,0,0,0,1-.42,1.46,1.46,0,0,0,.41-1.05v-.37h-1.41Zm5.87,1L255,50.72h1.12l1.47,3.07,1.47-3.07h1.11l-2.09,4.08v2.85h-1Z"/></svg>